<svg width="51" height="55" viewBox="0 0 51 55" fill="none" xmlns="http://www.w3.org/2000/svg">
<path d="M47.0701 47.3218C47.0701 46.0129 48.0769 44.9557 49.3355 44.8551C49.4362 44.8551 49.5369 44.7544 49.5369 44.6033V40.0725C49.5369 39.9719 49.4362 39.8712 49.3355 39.8208C48.0769 39.7201 47.0701 38.663 47.0701 37.3541C47.0701 36.0452 48.0769 34.988 49.3355 34.8873C49.4362 34.8873 49.5369 34.7866 49.5369 34.6356V30.1048C49.5369 30.0041 49.4362 29.9034 49.3355 29.853C48.0769 29.7524 47.0701 28.6952 47.0701 27.3863C47.0701 26.0774 48.0769 25.0202 49.3355 24.9195C49.4362 24.9195 49.5369 24.8188 49.5369 24.6678V20.137C49.5369 20.0363 49.4362 19.9356 49.3355 19.8853C48.0769 19.7846 47.0701 18.7274 47.0701 17.4185C47.0701 16.1096 48.0769 15.0524 49.3355 14.9517C49.4362 14.9517 49.5369 14.851 49.5369 14.7V10.1692C49.5369 10.0685 49.4362 9.96783 49.3355 9.91749C48.0769 9.8168 47.0701 8.75961 47.0701 7.45071C47.0701 6.14181 48.0769 5.08462 49.3355 4.98394C49.4362 4.98394 49.5369 4.88326 49.5369 4.73223V0.201419C49.5369 0.0503917 49.4362 -0.050293 49.2851 -0.050293H45.2578C45.1067 -0.050293 45.006 0.0503917 45.006 0.201419C45.006 1.45998 43.9992 2.46682 42.7406 2.46682C41.4821 2.46682 40.4752 1.45998 40.4752 0.201419C40.5256 0.100734 40.4249 4.93594e-05 40.2739 4.93594e-05H36.2465C36.0954 4.93594e-05 35.9948 0.100734 35.9948 0.251761C35.9948 1.51032 34.9879 2.51717 33.7294 2.51717C32.4708 2.51717 31.464 1.51032 31.464 0.251761C31.464 0.100734 31.3633 4.93594e-05 31.2122 4.93594e-05H27.1849C27.0338 4.93594e-05 26.9331 0.100734 26.9331 0.251761C26.9331 1.51032 25.9263 2.51717 24.6677 2.51717C23.4092 2.51717 22.4023 1.51032 22.4023 0.251761C22.4023 0.100734 22.3017 4.93594e-05 22.1506 4.93594e-05H18.1232C17.9722 4.93594e-05 17.8715 0.100734 17.8715 0.251761C17.8715 1.51032 16.8647 2.51717 15.6061 2.51717C14.3476 2.51717 13.3407 1.51032 13.3407 0.251761C13.3407 0.100734 13.24 4.93594e-05 13.089 4.93594e-05H9.06162C8.91059 4.93594e-05 8.80991 0.100734 8.80991 0.251761C8.80991 1.51032 7.80306 2.51717 6.5445 2.51717C5.28594 2.51717 4.2791 1.51032 4.2791 0.251761C4.48047 0.100734 4.37978 4.93594e-05 4.2791 4.93594e-05H0.251712C0.100685 4.93594e-05 0 0.100734 0 0.251761V4.78257C0 4.88326 0.100685 4.98394 0.201369 5.03428C1.45993 5.13497 2.46677 6.19216 2.46677 7.50106C2.46677 8.80996 1.45993 9.86715 0.201369 9.96783C0.100685 9.96783 0 10.0685 0 10.1692V14.7C0 14.8007 0.100685 14.9014 0.201369 14.9517C1.51027 15.0524 2.46677 16.1096 2.46677 17.4185C2.46677 18.7274 1.45993 19.7846 0.201369 19.8853C0.100685 19.9356 0 20.0363 0 20.137V24.6678C0 24.7685 0.100685 24.8692 0.201369 24.9195C1.45993 25.0202 2.46677 26.0774 2.46677 27.3863C2.46677 28.6952 1.45993 29.7524 0.201369 29.853C0.100685 29.853 0 29.9537 0 30.1048V34.6356C0 34.7363 0.100685 34.8369 0.201369 34.8873C1.45993 34.988 2.46677 36.0452 2.46677 37.3541C2.46677 38.663 1.45993 39.7201 0.201369 39.8208C0.100685 39.8208 0 39.9215 0 40.0725V44.6033C0 44.704 0.100685 44.8047 0.201369 44.8047C1.51027 44.9557 2.46677 46.0129 2.46677 47.3218C2.46677 48.6307 1.45993 49.6879 0.201369 49.7886C0.100685 49.7886 0 49.8893 0 50.0403V54.5711C0 54.7222 0.100685 54.8228 0.251712 54.8228H4.2791C4.37978 54.8228 4.48047 54.7222 4.53081 54.6215C4.63149 53.4636 5.588 52.5574 6.79621 52.5574C8.00443 52.5574 8.91059 53.4636 9.06162 54.6215C9.06162 54.7222 9.1623 54.8228 9.31333 54.8228H13.3911C13.4917 54.8228 13.5924 54.7222 13.6428 54.6215C13.7435 53.4636 14.7 52.5574 15.9082 52.5574C17.066 52.5574 18.0226 53.4636 18.1736 54.6215C18.1736 54.7222 18.2743 54.8228 18.4253 54.8228H22.503C22.6037 54.8228 22.7044 54.7222 22.7547 54.6215C22.8554 53.4636 23.8119 52.5574 25.0201 52.5574C26.2284 52.5574 27.1345 53.4636 27.2855 54.6215C27.2855 54.7222 27.3862 54.8228 27.5373 54.8228H31.615C31.7157 54.8228 31.8164 54.7222 31.8667 54.6215C31.9674 53.4636 32.9239 52.5574 34.1321 52.5574C35.29 52.5574 36.2465 53.4636 36.3975 54.6215C36.3975 54.7222 36.4982 54.8228 36.6492 54.8228H40.7269C40.8276 54.8228 40.9283 54.7222 40.9787 54.6215C41.0793 53.4636 42.0358 52.5574 43.2441 52.5574C44.4019 52.5574 45.3584 53.4636 45.5095 54.6215C45.5095 54.7222 45.6101 54.8228 45.7612 54.8228H49.7886C49.9396 54.8228 50.0403 54.7222 50.0403 54.5711V50.0403C50.0403 49.9396 49.9396 49.839 49.8389 49.7886C48.0266 49.6879 47.0701 48.6307 47.0701 47.3218Z" fill="#100C55"/>
<path d="M25.02 21.5466C25.02 22.2514 25.5738 22.8052 26.2786 22.8052C26.9834 22.8052 27.5371 22.2514 27.5371 21.5466C27.5371 20.8419 26.9834 20.2881 26.2786 20.2881C25.5738 20.2881 25.02 20.8419 25.02 21.5466Z" fill="#F5F6FC"/>
<path d="M26.3793 7.60181H10.6222C9.31329 7.60181 8.2561 8.659 8.2561 9.9679V46.013C8.2561 46.6171 8.75953 47.1205 9.36364 47.1205H14.3979C15.8578 47.1205 17.066 46.013 17.217 44.5531L18.0225 37.1528C18.3246 34.6356 18.5763 32.1689 18.828 29.6518V29.6014C18.828 29.4 18.8783 29.249 18.8783 29.0476C19.13 26.6816 19.4321 24.3155 19.6838 21.9494C19.9859 19.2309 21.9492 17.0662 24.5167 16.7138C27.1345 16.3614 29.3495 17.6199 30.5074 20.0364C30.6584 20.3888 30.8598 20.6908 31.1115 21.0432L32.4204 22.8555L32.4708 22.9059C32.9238 23.4596 33.3769 23.9631 33.83 24.4665C34.0817 24.7685 33.8804 25.1713 33.4776 25.1713C32.7728 25.1713 32.1184 25.1713 31.4136 25.1713C29.9033 25.1713 29.6013 25.6244 30.0543 27.0339C30.9605 29.9035 31.917 32.773 32.8735 35.6928C33.2259 36.8004 34.5851 37.2534 35.5416 36.599C39.3173 33.9812 41.8848 29.8028 42.3882 24.9699C43.2944 15.5056 35.9947 7.60181 26.3793 7.60181Z" fill="#DB4F5D"/>
</svg>
